# xmcd CD database file
#
# Track frame offsets:
#	150
#	10670
#	20755
#	28215
#	35702
#	60042
#	71155
#	78295
#	94732
#	107672
#	128847
#	147312
#	155722
#	165717
#	178487
#	182777
#	195482
#	213725
#	218512
#
# Disc length: 3055 seconds
#
# Revision: 0
# Processed by: cddbd v1.5.2PL0 Copyright (c) Steve Scherf et al.
# Submitted via: CDex 1.50
#
DISCID=110bed13
DTITLE=Jean Derome - 3 Musiques pour UBU [CD1 - Cantate grise)
DYEAR=1900
DGENRE=Jazz
TTITLE0=Berceuse I (l'avancée)
TTITLE1=La ronde des vieillards
TTITLE2=Canon à trois trombones
TTITLE3=Berceuse II (l'innomable)
TTITLE4=Cette pauvre vieille pouilleuse de vieille terre
TTITLE5=La valse de Vi-Ru-Flo
TTITLE6=Berceuse III
TTITLE7=Duo de bassons
TTITLE8=Fouillis (quoi où)
TTITLE9=Oscillation
TTITLE10=Lueurs
TTITLE11=Berceuse IV
TTITLE12=Pavane
TTITLE13=Cette chambre
TTITLE14=Petite marche
TTITLE15=Trio de bassons
TTITLE16=Spirale
TTITLE17=Ainsi de suite et de suite
TTITLE18=Berceuse V
EXTD=
EXTT0=
EXTT1=
EXTT2=
EXTT3=
EXTT4=
EXTT5=
EXTT6=
EXTT7=
EXTT8=
EXTT9=
EXTT10=
EXTT11=
EXTT12=
EXTT13=
EXTT14=
EXTT15=
EXTT16=
EXTT17=
EXTT18=
PLAYORDER=
